<?xml version="1.0" encoding="UTF-8"?>
<svg width="100" height="100" viewBox="0 0 100 100" xmlns="http://www.w3.org/2000/svg">
  <path d="M50,10 C30,10 10,20 10,50 C10,80 30,90 50,90 C70,90 90,80 90,50 C90,20 70,10 50,10 Z" fill="#a5d6a7" stroke="#2e7d32" stroke-width="2"/>
  <path d="M50,10 C50,10 30,40 50,90" fill="none" stroke="#2e7d32" stroke-width="2"/>
  <path d="M30,30 C30,30 50,40 70,30" fill="none" stroke="#2e7d32" stroke-width="2"/>
  <path d="M25,50 C25,50 50,60 75,50" fill="none" stroke="#2e7d32" stroke-width="2"/>
  <path d="M30,70 C30,70 50,80 70,70" fill="none" stroke="#2e7d32" stroke-width="2"/>
</svg>