<?xml version="1.0" encoding="UTF-8"?>
<svg width="100" height="100" viewBox="0 0 100 100" xmlns="http://www.w3.org/2000/svg">
  <!-- Stem -->
  <path d="M50,15 L50,90" stroke="#558b2f" stroke-width="2" stroke-linecap="round"/>
  
  <!-- Rice plants left side -->
  <path d="M30,10 C35,15 40,20 50,20" fill="none" stroke="#7cb342" stroke-width="2"/>
  <path d="M25,20 C30,25 40,30 50,30" fill="none" stroke="#7cb342" stroke-width="2"/>
  <path d="M20,30 C25,35 40,40 50,40" fill="none" stroke="#7cb342" stroke-width="2"/>
  <path d="M20,40 C25,45 40,50 50,50" fill="none" stroke="#7cb342" stroke-width="2"/>
  <path d="M20,50 C25,55 40,60 50,60" fill="none" stroke="#7cb342" stroke-width="2"/>
  
  <!-- Rice plants right side -->
  <path d="M70,10 C65,15 60,20 50,20" fill="none" stroke="#7cb342" stroke-width="2"/>
  <path d="M75,20 C70,25 60,30 50,30" fill="none" stroke="#7cb342" stroke-width="2"/>
  <path d="M80,30 C75,35 60,40 50,40" fill="none" stroke="#7cb342" stroke-width="2"/>
  <path d="M80,40 C75,45 60,50 50,50" fill="none" stroke="#7cb342" stroke-width="2"/>
  <path d="M80,50 C75,55 60,60 50,60" fill="none" stroke="#7cb342" stroke-width="2"/>
  
  <!-- Rice grains -->
  <circle cx="30" cy="10" r="2" fill="#f5f5f5" stroke="#d4e157" stroke-width="1"/>
  <circle cx="25" cy="20" r="2" fill="#f5f5f5" stroke="#d4e157" stroke-width="1"/>
  <circle cx="20" cy="30" r="2" fill="#f5f5f5" stroke="#d4e157" stroke-width="1"/>
  <circle cx="20" cy="40" r="2" fill="#f5f5f5" stroke="#d4e157" stroke-width="1"/>
  <circle cx="20" cy="50" r="2" fill="#f5f5f5" stroke="#d4e157" stroke-width="1"/>
  
  <circle cx="70" cy="10" r="2" fill="#f5f5f5" stroke="#d4e157" stroke-width="1"/>
  <circle cx="75" cy="20" r="2" fill="#f5f5f5" stroke="#d4e157" stroke-width="1"/>
  <circle cx="80" cy="30" r="2" fill="#f5f5f5" stroke="#d4e157" stroke-width="1"/>
  <circle cx="80" cy="40" r="2" fill="#f5f5f5" stroke="#d4e157" stroke-width="1"/>
  <circle cx="80" cy="50" r="2" fill="#f5f5f5" stroke="#d4e157" stroke-width="1"/>
</svg>